<svg width="734" height="734" viewBox="0 0 734 734" fill="none" xmlns="http://www.w3.org/2000/svg">
<path opacity="0.99" d="M367.003 731.5L367.003 2.5M184.753 682.67L549.253 51.33M51.3329 549.25L682.663 184.75M2.50293 367H731.503M51.3329 184.75L682.663 549.25M184.743 51.33L549.243 682.66" stroke="#DC2064" stroke-opacity="0.37" stroke-width="3" stroke-miterlimit="1.2"/>
<path opacity="0.99" d="M367.003 2.5L51.333 184.75L51.333 549.25L367.003 731.5L682.673 549.25V184.75L367.003 2.5Z" stroke="#DC2064" stroke-opacity="0.37" stroke-width="3" stroke-miterlimit="1.2"/>
<path opacity="0.99" d="M184.753 51.3301L2.50293 367L184.753 682.67L549.253 682.67L731.503 367L549.253 51.3301L184.753 51.3301Z" stroke="#DC2064" stroke-opacity="0.37" stroke-width="3" stroke-miterlimit="1.2"/>
<path opacity="0.99" d="M51.334 184.75L549.254 51.3301L682.664 549.25L184.754 682.67L51.334 184.75Z" stroke="#DC2064" stroke-opacity="0.37" stroke-width="3" stroke-miterlimit="1.2"/>
<path opacity="0.99" d="M682.663 184.75L549.253 682.67L51.333 549.25L184.753 51.3301L682.663 184.75Z" stroke="#DC2064" stroke-opacity="0.37" stroke-width="3" stroke-miterlimit="1.2"/>
<path opacity="0.99" d="M731.503 367L367.003 731.5L2.50293 367L367.003 2.5L731.503 367Z" stroke="#DC2064" stroke-opacity="0.37" stroke-width="3" stroke-miterlimit="1.2"/>
<path opacity="0.99" d="M184.753 51.3301L731.503 367L184.753 682.67V51.3301Z" stroke="#DC2064" stroke-opacity="0.37" stroke-width="3" stroke-miterlimit="1.2"/>
<path opacity="0.99" d="M2.5 367L549.25 51.3301V682.66L2.5 367Z" stroke="#DC2064" stroke-opacity="0.37" stroke-width="3" stroke-miterlimit="1.2"/>
<path opacity="0.99" d="M51.334 184.75L682.664 184.75L366.994 731.5L51.334 184.75Z" stroke="#DC2064" stroke-opacity="0.37" stroke-width="3" stroke-miterlimit="1.2"/>
<path opacity="0.99" d="M682.663 549.25H51.333L367.003 2.5L682.663 549.25Z" stroke="#DC2064" stroke-opacity="0.37" stroke-width="3" stroke-miterlimit="1.2"/>
<path opacity="0.99" d="M367.003 2.5L549.253 682.67" stroke="#DC2064" stroke-opacity="0.37" stroke-width="3" stroke-miterlimit="1.2"/>
<path opacity="0.99" d="M184.753 51.3301L682.663 549.25" stroke="#DC2064" stroke-opacity="0.37" stroke-width="3" stroke-miterlimit="1.2"/>
<path opacity="0.99" d="M51.334 184.75L731.504 367" stroke="#DC2064" stroke-opacity="0.37" stroke-width="3" stroke-miterlimit="1.2"/>
<path opacity="0.99" d="M2.5 367L682.66 184.75" stroke="#DC2064" stroke-opacity="0.37" stroke-width="3" stroke-miterlimit="1.2"/>
<path opacity="0.99" d="M51.334 549.25L549.254 51.3301" stroke="#DC2064" stroke-opacity="0.37" stroke-width="3" stroke-miterlimit="1.2"/>
<path opacity="0.99" d="M184.753 682.67L367.003 2.5" stroke="#DC2064" stroke-opacity="0.37" stroke-width="3" stroke-miterlimit="1.2"/>
<path opacity="0.99" d="M367.003 731.5L184.753 51.3301" stroke="#DC2064" stroke-opacity="0.37" stroke-width="3" stroke-miterlimit="1.2"/>
<path opacity="0.99" d="M549.253 682.67L51.333 184.75" stroke="#DC2064" stroke-opacity="0.37" stroke-width="3" stroke-miterlimit="1.2"/>
<path opacity="0.99" d="M682.663 549.25L2.50293 367" stroke="#DC2064" stroke-opacity="0.37" stroke-width="3" stroke-miterlimit="1.2"/>
<path opacity="0.99" d="M731.503 367L51.333 549.25" stroke="#DC2064" stroke-opacity="0.37" stroke-width="3" stroke-miterlimit="1.2"/>
<path opacity="0.99" d="M682.663 184.75L184.753 682.67" stroke="#DC2064" stroke-opacity="0.37" stroke-width="3" stroke-miterlimit="1.2"/>
<path opacity="0.99" d="M549.253 51.3301L367.003 731.5" stroke="#DC2064" stroke-opacity="0.37" stroke-width="3" stroke-miterlimit="1.2"/>
</svg>
