<svg width="20" height="13" viewBox="0 0 20 13" fill="none" xmlns="http://www.w3.org/2000/svg">
<path d="M18.025 2.26923H13.024V1.02723H18.025V2.26923ZM9.695 7.36323C10.017 7.86323 10.178 8.47023 10.178 9.18223C10.178 9.91923 9.996 10.5802 9.627 11.1642C9.39938 11.5427 9.10094 11.8737 8.748 12.1392C8.33442 12.4515 7.85483 12.665 7.346 12.7632C6.76885 12.8783 6.18149 12.9342 5.593 12.9302H0V0.51123H5.998C7.509 0.53623 8.58 0.97423 9.214 1.83423C9.594 2.36223 9.782 2.99423 9.782 3.73123C9.782 4.49023 9.592 5.09723 9.208 5.55923C8.995 5.81823 8.68 6.05323 8.263 6.26623C8.894 6.49723 9.374 6.86123 9.695 7.36323ZM2.865 5.40823H5.492C6.032 5.40823 6.469 5.30523 6.805 5.10023C7.141 4.89523 7.309 4.53023 7.309 4.00823C7.309 3.43023 7.087 3.04723 6.642 2.86223C6.259 2.73423 5.77 2.66823 5.176 2.66823H2.864L2.865 5.40823ZM7.562 9.00523C7.562 8.36023 7.298 7.91423 6.772 7.67523C6.477 7.53823 6.062 7.46923 5.53 7.46423H2.864V10.7742H5.49C6.029 10.7742 6.446 10.7032 6.747 10.5562C7.29 10.2852 7.563 9.77023 7.563 9.00523H7.562ZM19.88 6.98523C19.94 7.39123 19.968 7.98023 19.957 8.75123H13.48C13.516 9.64523 13.824 10.2702 14.41 10.6282C14.763 10.8522 15.19 10.9622 15.692 10.9622C16.22 10.9622 16.651 10.8282 16.982 10.5532C17.163 10.4082 17.322 10.2032 17.46 9.94323H19.834C19.772 10.4712 19.486 11.0072 18.973 11.5512C18.177 12.4162 17.061 12.8502 15.627 12.8502C14.443 12.8502 13.399 12.4842 12.493 11.7552C11.59 11.0232 11.137 9.83723 11.137 8.19123C11.137 6.64823 11.544 5.46723 12.361 4.64523C13.181 3.82123 14.239 3.41123 15.543 3.41123C16.317 3.41123 17.013 3.54923 17.635 3.82723C18.255 4.10523 18.767 4.54323 19.171 5.14423C19.536 5.67423 19.771 6.28623 19.881 6.98423L19.88 6.98523ZM17.543 7.21623C17.5 6.59823 17.293 6.13023 16.922 5.81023C16.553 5.49023 16.092 5.32923 15.543 5.32923C14.945 5.32923 14.483 5.50123 14.156 5.83923C13.826 6.17623 13.62 6.63523 13.536 7.21623H17.543Z" fill="white"/>
</svg>
