<svg width="24" height="24" viewBox="0 0 24 24" fill="none" xmlns="http://www.w3.org/2000/svg">
<g clip-path="url(#clip0_82_14)">
<path d="M7.02399 2.30982C7.77495 2.56421 8.48936 2.91587 9.14899 3.35582C10.0806 3.11773 11.0385 2.99812 12 2.99982C12.993 2.99982 13.951 3.12382 14.849 3.35482C15.5084 2.91529 16.2224 2.56398 16.973 2.30982C17.67 2.07282 18.663 1.68882 19.253 2.34182C19.653 2.78582 19.753 3.52982 19.824 4.09782C19.904 4.73182 19.923 5.55782 19.713 6.37782C20.516 7.41482 21 8.65182 21 9.99982C21 12.0418 19.894 13.8148 18.257 15.0428C17.4692 15.6263 16.5954 16.0838 15.667 16.3988C15.881 16.8888 16 17.4308 16 17.9998V20.9998C16 21.265 15.8946 21.5194 15.7071 21.7069C15.5196 21.8945 15.2652 21.9998 15 21.9998H8.99999C8.73477 21.9998 8.48042 21.8945 8.29288 21.7069C8.10534 21.5194 7.99999 21.265 7.99999 20.9998V20.0088C7.04499 20.1258 6.24399 20.0218 5.56299 19.7328C4.85099 19.4308 4.35499 18.9628 3.98199 18.5148C3.62799 18.0908 3.24199 17.1348 2.68399 16.9488C2.55936 16.9073 2.44413 16.8417 2.34487 16.7557C2.24562 16.6696 2.16427 16.5649 2.1055 16.4474C1.98678 16.2102 1.96718 15.9355 2.05099 15.6838C2.13479 15.4321 2.31515 15.224 2.55239 15.1053C2.78962 14.9866 3.06429 14.967 3.31599 15.0508C3.98199 15.2728 4.41599 15.7528 4.71299 16.1388C5.19299 16.7588 5.58299 17.5688 6.34299 17.8918C6.65599 18.0248 7.11499 18.1118 7.83299 18.0138L7.99999 17.9798C8.00189 17.4356 8.11522 16.8976 8.33299 16.3988C7.40457 16.0838 6.5308 15.6264 5.74299 15.0428C4.10599 13.8148 2.99999 12.0428 2.99999 9.99982C2.99999 8.65382 3.48299 7.41782 4.28399 6.38182C4.07399 5.56182 4.09199 4.73382 4.17199 4.09882L4.17699 4.06082C4.24999 3.47882 4.33499 2.79382 4.74299 2.34182C5.33299 1.68882 6.32699 2.07382 7.02298 2.31082L7.02399 2.30982Z" fill="white"/>
</g>
<defs>
<clipPath id="clip0_82_14">
<rect width="24" height="24" fill="white"/>
</clipPath>
</defs>
</svg>
