<svg width="270" height="79" viewBox="0 0 270 79" fill="none" xmlns="http://www.w3.org/2000/svg">
<path d="M19.146 39.11C20.186 39.11 21.018 39.578 21.642 40.514C22.266 41.45 22.578 42.646 22.578 44.102C22.578 46.13 22.214 48.054 21.486 49.874C20.81 51.642 19.848 53.228 18.6 54.632C17.404 55.984 15.974 57.076 14.31 57.908C12.646 58.688 10.826 59.078 8.85 59.078C7.966 59.078 7.238 58.896 6.666 58.532C5.782 61.132 4.976 63.888 4.248 66.8C3.52 69.764 3.156 72.52 3.156 75.068C3.156 76.212 3.754 76.706 4.95 76.55C5.73 76.394 6.51 76.082 7.29 75.614C7.446 75.562 7.524 75.64 7.524 75.848C7.576 76.108 7.55 76.316 7.446 76.472C6.822 76.836 5.964 77.2 4.872 77.564C3.78 77.928 2.74 78.11 1.752 78.11C1.336 78.11 0.998 78.006 0.738 77.798C0.478 77.642 0.348 77.33 0.348 76.862C0.348 74.21 0.764 71.142 1.596 67.658C2.428 64.174 3.52 60.56 4.872 56.816C4.768 56.66 4.664 56.504 4.56 56.348C4.508 56.14 4.456 55.932 4.404 55.724C4.352 55.516 4.742 55.282 5.574 55.022C6.25 53.15 6.978 51.278 7.758 49.406C8.538 47.534 9.318 45.714 10.098 43.946C11.086 41.762 11.528 40.436 11.424 39.968C11.372 39.448 11.06 39.344 10.488 39.656C10.124 39.864 9.708 40.15 9.24 40.514C8.772 40.878 8.33 41.294 7.914 41.762C7.81 41.866 7.68 41.84 7.524 41.684C7.42 41.476 7.394 41.32 7.446 41.216C7.758 40.852 8.174 40.436 8.694 39.968C9.214 39.5 9.734 39.058 10.254 38.642C10.826 38.174 11.372 37.784 11.892 37.472C12.464 37.16 12.958 37.004 13.374 37.004C13.79 37.004 14.05 37.238 14.154 37.706C14.31 38.122 14.232 38.694 13.92 39.422C13.608 40.306 13.192 41.346 12.672 42.542C12.204 43.686 11.684 44.83 11.112 45.974C12.568 43.79 13.998 42.1 15.402 40.904C16.806 39.708 18.054 39.11 19.146 39.11ZM10.8 57.518C12.1 57.518 13.296 57.232 14.388 56.66C15.532 56.088 16.494 55.308 17.274 54.32C18.106 53.28 18.73 52.084 19.146 50.732C19.614 49.328 19.848 47.794 19.848 46.13C19.848 44.882 19.614 43.868 19.146 43.088C18.73 42.256 18.054 41.84 17.118 41.84C15.922 41.84 14.492 42.906 12.828 45.038C11.164 47.17 9.63 50.186 8.226 54.086C8.122 54.346 8.018 54.606 7.914 54.866C7.862 55.126 7.784 55.386 7.68 55.646C7.94 56.218 8.304 56.686 8.772 57.05C9.292 57.362 9.968 57.518 10.8 57.518ZM32.7759 41.216C32.7759 41.996 32.6979 42.906 32.5419 43.946C32.3859 44.986 32.1779 46.026 31.9179 47.066C32.9579 44.57 34.1019 42.62 35.3499 41.216C36.5979 39.76 37.9499 39.032 39.4059 39.032C39.9779 39.032 40.4979 39.188 40.9659 39.5C41.4339 39.812 41.6679 40.254 41.6679 40.826C41.6679 41.242 41.5119 41.788 41.1999 42.464C40.8879 43.088 40.5759 43.556 40.2639 43.868C39.9519 44.076 39.7959 43.998 39.7959 43.634C39.7959 42.75 39.1979 42.308 38.0019 42.308C36.1819 42.308 34.5439 43.686 33.0879 46.442C31.6319 49.146 30.2539 52.916 28.9539 57.752C28.8499 58.272 28.4859 58.61 27.8619 58.766C27.2899 58.922 26.7959 59 26.3799 59C25.8079 59 25.6779 58.714 25.9899 58.142C26.4579 57.05 26.8999 55.88 27.3159 54.632C27.7319 53.332 28.1219 52.032 28.4859 50.732C28.9019 49.432 29.2399 48.158 29.4999 46.91C29.7599 45.662 29.9679 44.518 30.1239 43.478C30.3319 41.918 30.0719 41.138 29.3439 41.138C28.9279 41.138 28.4339 41.372 27.8619 41.84C27.3419 42.308 26.8479 42.854 26.3799 43.478C26.1719 43.582 25.9899 43.582 25.8339 43.478C25.6779 43.322 25.6519 43.14 25.7559 42.932C26.5359 41.944 27.3939 41.06 28.3299 40.28C29.3179 39.448 30.2279 39.032 31.0599 39.032C32.2039 39.032 32.7759 39.76 32.7759 41.216ZM59.6323 54.086C59.7363 53.982 59.8663 53.982 60.0223 54.086C60.1783 54.19 60.2303 54.346 60.1783 54.554C59.0863 56.062 57.9943 57.18 56.9023 57.908C55.8623 58.636 54.9783 59 54.2503 59C53.7823 59 53.3923 58.766 53.0803 58.298C52.8203 57.83 52.6383 57.206 52.5343 56.426C52.4823 55.594 52.5083 54.684 52.6123 53.696C52.7683 52.656 53.0023 51.59 53.3143 50.498C51.9103 52.682 50.4283 54.58 48.8683 56.192C47.3083 57.752 45.8003 58.688 44.3443 59C43.4083 59 42.6023 58.558 41.9263 57.674C41.3023 56.738 40.9903 55.308 40.9903 53.384C40.9903 51.668 41.3283 49.978 42.0043 48.314C42.7323 46.598 43.6943 45.064 44.8903 43.712C46.0863 42.308 47.4643 41.19 49.0243 40.358C50.5843 39.526 52.2223 39.11 53.9383 39.11C54.8743 39.11 55.6803 39.214 56.3563 39.422C57.0323 39.63 57.6563 39.942 58.2283 40.358C58.5403 40.098 58.9563 39.864 59.4763 39.656C60.0483 39.396 60.5683 39.266 61.0363 39.266C61.2963 39.266 61.3743 39.396 61.2703 39.656C60.0743 41.112 59.0343 42.724 58.1503 44.492C57.3183 46.26 56.6683 47.976 56.2003 49.64C55.7323 51.304 55.4203 52.786 55.2643 54.086C55.1603 55.334 55.2643 56.192 55.5763 56.66C55.8363 57.024 56.3043 57.05 56.9803 56.738C57.6563 56.374 58.5403 55.49 59.6323 54.086ZM46.0603 56.348C46.6323 56.348 47.3603 55.958 48.2443 55.178C49.1803 54.346 50.1423 53.28 51.1303 51.98C52.1183 50.68 53.0803 49.224 54.0163 47.612C55.0043 45.948 55.8623 44.284 56.5903 42.62C56.3823 41.944 55.8883 41.398 55.1083 40.982C54.3803 40.566 53.5223 40.358 52.5343 40.358C51.3903 40.358 50.2983 40.67 49.2583 41.294C48.2703 41.866 47.3863 42.698 46.6063 43.79C45.8263 44.83 45.2023 46.078 44.7343 47.534C44.2663 48.99 44.0323 50.602 44.0323 52.37C44.0323 53.514 44.2143 54.476 44.5783 55.256C44.9943 55.984 45.4883 56.348 46.0603 56.348ZM72.342 39.032C73.382 39.032 74.24 39.214 74.916 39.578C75.644 39.89 76.008 40.254 76.008 40.67C76.008 41.242 75.878 41.892 75.618 42.62C75.41 43.348 75.176 43.946 74.916 44.414C74.812 44.518 74.656 44.544 74.448 44.492C74.292 44.388 74.24 44.258 74.292 44.102C74.448 43.738 74.552 43.322 74.604 42.854C74.656 42.386 74.63 41.97 74.526 41.606C74.266 40.566 73.538 40.046 72.342 40.046C71.458 40.046 70.73 40.306 70.158 40.826C69.638 41.346 69.378 42.126 69.378 43.166C69.378 43.998 69.586 44.804 70.002 45.584C70.47 46.312 70.964 47.066 71.484 47.846C72.056 48.574 72.55 49.38 72.966 50.264C73.434 51.096 73.668 52.032 73.668 53.072C73.668 54.736 73.07 56.14 71.874 57.284C70.73 58.428 68.988 59 66.648 59C65.036 59 63.71 58.714 62.67 58.142C61.63 57.57 61.11 56.972 61.11 56.348C61.11 55.88 61.396 55.178 61.968 54.242C62.54 53.306 63.19 52.552 63.918 51.98C64.074 51.876 64.204 51.902 64.308 52.058C64.464 52.214 64.49 52.37 64.386 52.526C63.97 52.942 63.658 53.436 63.45 54.008C63.242 54.528 63.19 54.996 63.294 55.412C63.45 56.296 63.84 56.972 64.464 57.44C65.14 57.856 65.92 58.064 66.804 58.064C68.156 58.064 69.196 57.7 69.924 56.972C70.704 56.244 71.094 55.308 71.094 54.164C71.094 53.176 70.86 52.266 70.392 51.434C69.924 50.55 69.404 49.718 68.832 48.938C68.312 48.106 67.818 47.3 67.35 46.52C66.934 45.688 66.726 44.804 66.726 43.868C66.726 42.516 67.22 41.372 68.208 40.436C69.248 39.5 70.626 39.032 72.342 39.032ZM78.2292 58.298C80.5692 49.354 83.1952 41.294 86.1072 34.118C89.0192 26.942 92.0612 20.832 95.2332 15.788C98.4572 10.744 101.733 6.87 105.061 4.166C108.389 1.41 111.613 0.0319967 114.733 0.0319967C115.877 0.0319967 116.813 0.265997 117.541 0.733997C118.321 1.15 118.841 1.696 119.101 2.372C119.413 3.048 119.491 3.802 119.335 4.634C119.231 5.466 118.867 6.272 118.243 7.052C118.139 7.208 118.009 7.26 117.853 7.208C117.697 7.156 117.619 7.026 117.619 6.818C117.827 5.778 117.515 4.79 116.683 3.854C115.851 2.918 114.525 2.45 112.705 2.45C110.261 2.45 107.765 3.412 105.217 5.336C102.669 7.26 100.121 10.224 97.5732 14.228C95.0252 18.18 92.5032 23.172 90.0072 29.204C87.5632 35.236 85.1972 42.386 82.9092 50.654C83.7412 49.042 84.7032 47.534 85.7952 46.13C86.8872 44.674 88.0052 43.426 89.1492 42.386C90.2932 41.346 91.4372 40.54 92.5812 39.968C93.7772 39.344 94.9212 39.032 96.0132 39.032C96.6372 39.032 97.1052 39.188 97.4172 39.5C97.7292 39.812 97.8852 40.176 97.8852 40.592C97.8852 41.268 97.6512 42.022 97.1832 42.854C96.0912 44.778 95.1812 46.754 94.4532 48.782C93.7772 50.81 93.4392 52.656 93.4392 54.32C93.4392 55.048 93.5172 55.646 93.6732 56.114C93.8812 56.582 94.1932 56.816 94.6092 56.816C95.1292 56.816 95.6752 56.556 96.2472 56.036C96.8712 55.464 97.4172 54.84 97.8852 54.164C98.0412 54.06 98.1972 54.086 98.3532 54.242C98.5092 54.346 98.5612 54.502 98.5092 54.71C98.1972 55.178 97.8072 55.672 97.3392 56.192C96.8712 56.66 96.3512 57.128 95.7792 57.596C95.2592 58.012 94.7132 58.35 94.1412 58.61C93.5692 58.87 93.0492 59 92.5812 59C91.2812 59 90.6312 57.908 90.6312 55.724C90.6312 53.852 90.9432 51.824 91.5672 49.64C92.1912 47.404 92.9452 45.428 93.8292 43.712C94.1412 43.192 94.2972 42.75 94.2972 42.386C94.2972 41.918 94.0112 41.684 93.4392 41.684C92.5032 41.684 91.4892 42.048 90.3972 42.776C89.3052 43.504 88.1872 44.57 87.0432 45.974C85.8992 47.378 84.8072 49.094 83.7672 51.122C82.7272 53.098 81.7912 55.334 80.9592 57.83C80.8552 58.194 80.5692 58.48 80.1012 58.688C79.6852 58.896 79.2692 59 78.8532 59C78.2812 59 78.0732 58.766 78.2292 58.298ZM120.037 54.086C120.141 53.982 120.271 53.982 120.427 54.086C120.583 54.19 120.635 54.346 120.583 54.554C119.491 56.062 118.399 57.18 117.307 57.908C116.267 58.636 115.383 59 114.655 59C114.187 59 113.797 58.766 113.485 58.298C113.225 57.83 113.043 57.206 112.939 56.426C112.887 55.594 112.913 54.684 113.017 53.696C113.173 52.656 113.407 51.59 113.719 50.498C112.315 52.682 110.833 54.58 109.273 56.192C107.713 57.752 106.205 58.688 104.749 59C103.813 59 103.007 58.558 102.331 57.674C101.707 56.738 101.395 55.308 101.395 53.384C101.395 51.668 101.733 49.978 102.409 48.314C103.137 46.598 104.099 45.064 105.295 43.712C106.491 42.308 107.869 41.19 109.429 40.358C110.989 39.526 112.627 39.11 114.343 39.11C115.279 39.11 116.085 39.214 116.761 39.422C117.437 39.63 118.061 39.942 118.633 40.358C118.945 40.098 119.361 39.864 119.881 39.656C120.453 39.396 120.973 39.266 121.441 39.266C121.701 39.266 121.779 39.396 121.675 39.656C120.479 41.112 119.439 42.724 118.555 44.492C117.723 46.26 117.073 47.976 116.605 49.64C116.137 51.304 115.825 52.786 115.669 54.086C115.565 55.334 115.669 56.192 115.981 56.66C116.241 57.024 116.709 57.05 117.385 56.738C118.061 56.374 118.945 55.49 120.037 54.086ZM106.465 56.348C107.037 56.348 107.765 55.958 108.649 55.178C109.585 54.346 110.547 53.28 111.535 51.98C112.523 50.68 113.485 49.224 114.421 47.612C115.409 45.948 116.267 44.284 116.995 42.62C116.787 41.944 116.293 41.398 115.513 40.982C114.785 40.566 113.927 40.358 112.939 40.358C111.795 40.358 110.703 40.67 109.663 41.294C108.675 41.866 107.791 42.698 107.011 43.79C106.231 44.83 105.607 46.078 105.139 47.534C104.671 48.99 104.437 50.602 104.437 52.37C104.437 53.514 104.619 54.476 104.983 55.256C105.399 55.984 105.893 56.348 106.465 56.348ZM132.746 39.032C133.786 39.032 134.644 39.214 135.32 39.578C136.048 39.89 136.412 40.254 136.412 40.67C136.412 41.242 136.282 41.892 136.022 42.62C135.814 43.348 135.58 43.946 135.32 44.414C135.216 44.518 135.06 44.544 134.852 44.492C134.696 44.388 134.644 44.258 134.696 44.102C134.852 43.738 134.956 43.322 135.008 42.854C135.06 42.386 135.034 41.97 134.93 41.606C134.67 40.566 133.942 40.046 132.746 40.046C131.862 40.046 131.134 40.306 130.562 40.826C130.042 41.346 129.782 42.126 129.782 43.166C129.782 43.998 129.99 44.804 130.406 45.584C130.874 46.312 131.368 47.066 131.888 47.846C132.46 48.574 132.954 49.38 133.37 50.264C133.838 51.096 134.072 52.032 134.072 53.072C134.072 54.736 133.474 56.14 132.278 57.284C131.134 58.428 129.392 59 127.052 59C125.44 59 124.114 58.714 123.074 58.142C122.034 57.57 121.514 56.972 121.514 56.348C121.514 55.88 121.8 55.178 122.372 54.242C122.944 53.306 123.594 52.552 124.322 51.98C124.478 51.876 124.608 51.902 124.712 52.058C124.868 52.214 124.894 52.37 124.79 52.526C124.374 52.942 124.062 53.436 123.854 54.008C123.646 54.528 123.594 54.996 123.698 55.412C123.854 56.296 124.244 56.972 124.868 57.44C125.544 57.856 126.324 58.064 127.208 58.064C128.56 58.064 129.6 57.7 130.328 56.972C131.108 56.244 131.498 55.308 131.498 54.164C131.498 53.176 131.264 52.266 130.796 51.434C130.328 50.55 129.808 49.718 129.236 48.938C128.716 48.106 128.222 47.3 127.754 46.52C127.338 45.688 127.13 44.804 127.13 43.868C127.13 42.516 127.624 41.372 128.612 40.436C129.652 39.5 131.03 39.032 132.746 39.032ZM152.673 39.344C152.933 39.448 153.037 39.604 152.985 39.812C152.933 40.02 152.699 40.15 152.283 40.202C151.451 40.254 150.515 40.306 149.475 40.358C148.487 40.41 147.473 40.488 146.433 40.592C145.393 43.192 144.535 45.688 143.859 48.08C143.183 50.472 142.845 52.448 142.845 54.008C142.845 55.776 143.521 56.66 144.873 56.66C146.225 56.66 147.707 55.464 149.319 53.072C149.475 52.968 149.631 52.994 149.787 53.15C149.943 53.254 149.995 53.436 149.943 53.696C149.475 54.424 148.929 55.126 148.305 55.802C147.733 56.426 147.135 56.972 146.511 57.44C145.887 57.908 145.289 58.298 144.717 58.61C144.145 58.87 143.677 59 143.313 59C142.169 59 141.311 58.662 140.739 57.986C140.219 57.258 139.959 56.4 139.959 55.412C139.959 53.696 140.323 51.538 141.051 48.938C141.779 46.338 142.689 43.66 143.781 40.904C143.105 41.008 142.455 41.112 141.831 41.216C141.207 41.32 140.609 41.424 140.037 41.528C139.777 41.476 139.699 41.346 139.803 41.138C139.959 40.93 140.193 40.722 140.505 40.514C140.869 40.306 141.285 40.124 141.753 39.968C142.221 39.76 142.663 39.656 143.079 39.656C143.339 39.604 143.547 39.578 143.703 39.578C143.911 39.578 144.119 39.578 144.327 39.578C145.055 37.966 145.783 36.432 146.511 34.976C147.239 33.468 147.967 32.09 148.695 30.842C149.007 30.53 149.345 30.27 149.709 30.062C150.125 29.802 150.515 29.646 150.879 29.594C151.243 29.49 151.529 29.464 151.737 29.516C151.945 29.516 152.023 29.594 151.971 29.75C151.087 31.102 150.203 32.61 149.319 34.274C148.487 35.938 147.681 37.654 146.901 39.422C147.837 39.422 148.773 39.422 149.709 39.422C150.645 39.37 151.633 39.344 152.673 39.344ZM153.992 44.492C153.836 44.596 153.68 44.57 153.524 44.414C153.42 44.206 153.42 44.024 153.524 43.868C154.252 43.14 155.24 42.308 156.488 41.372C157.736 40.436 158.984 39.656 160.232 39.032C160.648 39.032 160.856 39.266 160.856 39.734C160.18 40.93 159.504 42.23 158.828 43.634C158.204 45.038 157.632 46.442 157.112 47.846C156.644 49.198 156.254 50.524 155.942 51.824C155.63 53.072 155.474 54.112 155.474 54.944C155.474 56.036 155.838 56.582 156.566 56.582C157.138 56.582 157.684 56.348 158.204 55.88C158.776 55.36 159.426 54.684 160.154 53.852C160.258 53.748 160.388 53.774 160.544 53.93C160.7 54.086 160.726 54.268 160.622 54.476C159.686 55.62 158.672 56.66 157.58 57.596C156.54 58.532 155.552 59 154.616 59C153.264 59 152.588 58.142 152.588 56.426C152.588 55.438 152.744 54.268 153.056 52.916C153.42 51.512 153.862 50.108 154.382 48.704C154.902 47.3 155.474 45.948 156.098 44.648C156.774 43.348 157.424 42.23 158.048 41.294C157.476 41.71 156.748 42.256 155.864 42.932C155.032 43.556 154.408 44.076 153.992 44.492ZM161.012 35.678C160.856 35.834 160.7 35.86 160.544 35.756C160.44 35.6 160.362 35.418 160.31 35.21C160.258 34.95 160.232 34.664 160.232 34.352C160.232 34.04 160.31 33.78 160.466 33.572C161.818 31.7 163.716 29.698 166.16 27.566C166.316 27.514 166.472 27.566 166.628 27.722C166.784 27.826 166.81 27.93 166.706 28.034C165.614 29.022 164.574 30.218 163.586 31.622C162.598 32.974 161.74 34.326 161.012 35.678ZM190.948 37.94C191.104 37.836 191.26 37.862 191.416 38.018C191.572 38.122 191.598 38.278 191.494 38.486C191.078 39.11 190.558 39.682 189.934 40.202C189.31 40.67 188.53 40.878 187.594 40.826C188.062 41.606 188.296 42.62 188.296 43.868C188.296 45.064 188.114 46.156 187.75 47.144C187.386 48.132 186.97 49.068 186.502 49.952C186.034 50.836 185.54 51.668 185.02 52.448C184.552 53.228 184.162 54.034 183.85 54.866C183.59 55.698 183.46 56.556 183.46 57.44C183.512 58.272 183.824 59.208 184.396 60.248C184.864 61.132 185.28 61.912 185.644 62.588C186.06 63.316 186.398 63.992 186.658 64.616C186.97 65.292 187.178 65.968 187.282 66.644C187.438 67.32 187.516 68.048 187.516 68.828C187.516 70.076 187.256 71.246 186.736 72.338C186.216 73.482 185.462 74.47 184.474 75.302C183.486 76.186 182.29 76.862 180.886 77.33C179.482 77.85 177.896 78.11 176.128 78.11C174.308 78.11 172.67 77.85 171.214 77.33C169.758 76.81 168.536 76.108 167.548 75.224C166.508 74.392 165.728 73.404 165.208 72.26C164.688 71.168 164.428 70.024 164.428 68.828C164.428 67.268 165 65.89 166.144 64.694C167.236 63.55 168.822 62.692 170.902 62.12C171.162 62.12 171.344 62.198 171.448 62.354C171.5 62.562 171.448 62.744 171.292 62.9C170.2 63.316 169.316 63.94 168.64 64.772C167.964 65.604 167.626 66.722 167.626 68.126C167.626 70.778 168.536 72.91 170.356 74.522C172.176 76.134 174.568 76.94 177.532 76.94C180.028 76.94 181.874 76.29 183.07 74.99C184.266 73.742 184.864 72.104 184.864 70.076C184.864 68.88 184.682 67.814 184.318 66.878C183.954 65.942 183.408 64.876 182.68 63.68C181.692 62.016 181.25 60.43 181.354 58.922C181.51 57.362 182.056 55.75 182.992 54.086C183.096 53.878 183.2 53.696 183.304 53.54C183.46 53.332 183.59 53.098 183.694 52.838C183.122 53.462 182.446 54.008 181.666 54.476C180.938 54.944 180.314 55.178 179.794 55.178C177.246 55.178 175.972 53.514 175.972 50.186C175.972 49.094 176.18 47.898 176.596 46.598C177.012 45.298 177.584 44.102 178.312 43.01C179.092 41.866 179.976 40.93 180.964 40.202C182.004 39.474 183.148 39.11 184.396 39.11C186.216 39.11 187.62 39.058 188.608 38.954C189.596 38.798 190.376 38.46 190.948 37.94ZM184.708 50.966C185.02 50.238 185.28 49.484 185.488 48.704C185.696 47.924 185.8 47.144 185.8 46.364C185.8 44.856 185.54 43.686 185.02 42.854C184.552 41.97 183.772 41.528 182.68 41.528C181.432 41.528 180.366 42.152 179.482 43.4C178.65 44.648 178.234 46.416 178.234 48.704C178.234 50.212 178.468 51.304 178.936 51.98C179.456 52.656 180.21 52.994 181.198 52.994C181.77 52.994 182.394 52.812 183.07 52.448C183.746 52.084 184.292 51.59 184.708 50.966ZM194.767 59C194.091 59 193.493 58.688 192.973 58.064C192.453 57.388 192.193 56.53 192.193 55.49C192.193 54.658 192.297 53.696 192.505 52.604C192.765 51.46 193.077 50.264 193.441 49.016C193.857 47.768 194.351 46.52 194.923 45.272C195.495 44.024 196.145 42.854 196.873 41.762C196.301 42.178 195.703 42.646 195.079 43.166C194.455 43.634 193.935 44.076 193.519 44.492C193.363 44.596 193.233 44.57 193.129 44.414C193.025 44.206 192.999 44.024 193.051 43.868C193.415 43.504 193.883 43.088 194.455 42.62C195.027 42.152 195.625 41.684 196.249 41.216C196.925 40.748 197.601 40.306 198.277 39.89C199.005 39.422 199.681 39.032 200.305 38.72C200.513 38.668 200.669 38.72 200.773 38.876C200.929 39.032 200.981 39.214 200.929 39.422C199.265 41.554 197.913 43.92 196.873 46.52C195.885 49.068 195.391 51.512 195.391 53.852C195.391 55.36 195.833 56.114 196.717 56.114C197.393 56.114 198.225 55.672 199.213 54.788C200.253 53.852 201.319 52.656 202.411 51.2C203.503 49.692 204.595 48.002 205.687 46.13C206.831 44.258 207.871 42.36 208.807 40.436C208.963 40.072 209.249 39.76 209.665 39.5C210.133 39.188 210.627 39.032 211.147 39.032C211.823 39.032 212.057 39.24 211.849 39.656C211.121 41.008 210.471 42.282 209.899 43.478C209.327 44.622 208.859 45.766 208.495 46.91C208.131 48.054 207.845 49.224 207.637 50.42C207.481 51.616 207.403 52.916 207.403 54.32C207.403 55.984 207.871 56.816 208.807 56.816C209.223 56.816 209.691 56.608 210.211 56.192C210.731 55.724 211.251 55.126 211.771 54.398C211.927 54.294 212.083 54.294 212.239 54.398C212.395 54.502 212.421 54.684 212.317 54.944C211.589 56.036 210.731 56.998 209.743 57.83C208.807 58.61 207.897 59 207.013 59C206.337 59 205.765 58.662 205.297 57.986C204.829 57.31 204.595 56.4 204.595 55.256C204.595 54.008 204.699 52.682 204.907 51.278C205.167 49.822 205.557 48.366 206.077 46.91C205.089 48.834 204.049 50.55 202.957 52.058C201.865 53.514 200.799 54.762 199.759 55.802C198.771 56.842 197.835 57.648 196.951 58.22C196.067 58.74 195.339 59 194.767 59ZM229.152 39.11C230.192 39.11 231.024 39.578 231.648 40.514C232.272 41.45 232.584 42.646 232.584 44.102C232.584 46.13 232.22 48.054 231.492 49.874C230.816 51.642 229.854 53.228 228.606 54.632C227.41 55.984 225.98 57.076 224.316 57.908C222.652 58.688 220.832 59.078 218.856 59.078C217.972 59.078 217.244 58.896 216.672 58.532C215.788 61.132 214.982 63.888 214.254 66.8C213.526 69.764 213.162 72.52 213.162 75.068C213.162 76.212 213.76 76.706 214.956 76.55C215.736 76.394 216.516 76.082 217.296 75.614C217.452 75.562 217.53 75.64 217.53 75.848C217.582 76.108 217.556 76.316 217.452 76.472C216.828 76.836 215.97 77.2 214.878 77.564C213.786 77.928 212.746 78.11 211.758 78.11C211.342 78.11 211.004 78.006 210.744 77.798C210.484 77.642 210.354 77.33 210.354 76.862C210.354 74.21 210.77 71.142 211.602 67.658C212.434 64.174 213.526 60.56 214.878 56.816C214.774 56.66 214.67 56.504 214.566 56.348C214.514 56.14 214.462 55.932 214.41 55.724C214.358 55.516 214.748 55.282 215.58 55.022C216.256 53.15 216.984 51.278 217.764 49.406C218.544 47.534 219.324 45.714 220.104 43.946C221.092 41.762 221.534 40.436 221.43 39.968C221.378 39.448 221.066 39.344 220.494 39.656C220.13 39.864 219.714 40.15 219.246 40.514C218.778 40.878 218.336 41.294 217.92 41.762C217.816 41.866 217.686 41.84 217.53 41.684C217.426 41.476 217.4 41.32 217.452 41.216C217.764 40.852 218.18 40.436 218.7 39.968C219.22 39.5 219.74 39.058 220.26 38.642C220.832 38.174 221.378 37.784 221.898 37.472C222.47 37.16 222.964 37.004 223.38 37.004C223.796 37.004 224.056 37.238 224.16 37.706C224.316 38.122 224.238 38.694 223.926 39.422C223.614 40.306 223.198 41.346 222.678 42.542C222.21 43.686 221.69 44.83 221.118 45.974C222.574 43.79 224.004 42.1 225.408 40.904C226.812 39.708 228.06 39.11 229.152 39.11ZM220.806 57.518C222.106 57.518 223.302 57.232 224.394 56.66C225.538 56.088 226.5 55.308 227.28 54.32C228.112 53.28 228.736 52.084 229.152 50.732C229.62 49.328 229.854 47.794 229.854 46.13C229.854 44.882 229.62 43.868 229.152 43.088C228.736 42.256 228.06 41.84 227.124 41.84C225.928 41.84 224.498 42.906 222.834 45.038C221.17 47.17 219.636 50.186 218.232 54.086C218.128 54.346 218.024 54.606 217.92 54.866C217.868 55.126 217.79 55.386 217.686 55.646C217.946 56.218 218.31 56.686 218.778 57.05C219.298 57.362 219.974 57.518 220.806 57.518ZM249.412 39.344C249.672 39.448 249.776 39.604 249.724 39.812C249.672 40.02 249.438 40.15 249.022 40.202C248.19 40.254 247.254 40.306 246.214 40.358C245.226 40.41 244.212 40.488 243.172 40.592C242.132 43.192 241.274 45.688 240.598 48.08C239.922 50.472 239.584 52.448 239.584 54.008C239.584 55.776 240.26 56.66 241.612 56.66C242.964 56.66 244.446 55.464 246.058 53.072C246.214 52.968 246.37 52.994 246.526 53.15C246.682 53.254 246.734 53.436 246.682 53.696C246.214 54.424 245.668 55.126 245.044 55.802C244.472 56.426 243.874 56.972 243.25 57.44C242.626 57.908 242.028 58.298 241.456 58.61C240.884 58.87 240.416 59 240.052 59C238.908 59 238.05 58.662 237.478 57.986C236.958 57.258 236.698 56.4 236.698 55.412C236.698 53.696 237.062 51.538 237.79 48.938C238.518 46.338 239.428 43.66 240.52 40.904C239.844 41.008 239.194 41.112 238.57 41.216C237.946 41.32 237.348 41.424 236.776 41.528C236.516 41.476 236.438 41.346 236.542 41.138C236.698 40.93 236.932 40.722 237.244 40.514C237.608 40.306 238.024 40.124 238.492 39.968C238.96 39.76 239.402 39.656 239.818 39.656C240.078 39.604 240.286 39.578 240.442 39.578C240.65 39.578 240.858 39.578 241.066 39.578C241.794 37.966 242.522 36.432 243.25 34.976C243.978 33.468 244.706 32.09 245.434 30.842C245.746 30.53 246.084 30.27 246.448 30.062C246.864 29.802 247.254 29.646 247.618 29.594C247.982 29.49 248.268 29.464 248.476 29.516C248.684 29.516 248.762 29.594 248.71 29.75C247.826 31.102 246.942 32.61 246.058 34.274C245.226 35.938 244.42 37.654 243.64 39.422C244.576 39.422 245.512 39.422 246.448 39.422C247.384 39.37 248.372 39.344 249.412 39.344ZM267.734 54.086C267.838 53.982 267.968 53.982 268.124 54.086C268.28 54.19 268.332 54.346 268.28 54.554C267.188 56.062 266.096 57.18 265.004 57.908C263.964 58.636 263.08 59 262.352 59C261.884 59 261.494 58.766 261.182 58.298C260.922 57.83 260.74 57.206 260.636 56.426C260.584 55.594 260.61 54.684 260.714 53.696C260.87 52.656 261.104 51.59 261.416 50.498C260.012 52.682 258.53 54.58 256.97 56.192C255.41 57.752 253.902 58.688 252.446 59C251.51 59 250.704 58.558 250.028 57.674C249.404 56.738 249.092 55.308 249.092 53.384C249.092 51.668 249.43 49.978 250.106 48.314C250.834 46.598 251.796 45.064 252.992 43.712C254.188 42.308 255.566 41.19 257.126 40.358C258.686 39.526 260.324 39.11 262.04 39.11C262.976 39.11 263.782 39.214 264.458 39.422C265.134 39.63 265.758 39.942 266.33 40.358C266.642 40.098 267.058 39.864 267.578 39.656C268.15 39.396 268.67 39.266 269.138 39.266C269.398 39.266 269.476 39.396 269.372 39.656C268.176 41.112 267.136 42.724 266.252 44.492C265.42 46.26 264.77 47.976 264.302 49.64C263.834 51.304 263.522 52.786 263.366 54.086C263.262 55.334 263.366 56.192 263.678 56.66C263.938 57.024 264.406 57.05 265.082 56.738C265.758 56.374 266.642 55.49 267.734 54.086ZM254.162 56.348C254.734 56.348 255.462 55.958 256.346 55.178C257.282 54.346 258.244 53.28 259.232 51.98C260.22 50.68 261.182 49.224 262.118 47.612C263.106 45.948 263.964 44.284 264.692 42.62C264.484 41.944 263.99 41.398 263.21 40.982C262.482 40.566 261.624 40.358 260.636 40.358C259.492 40.358 258.4 40.67 257.36 41.294C256.372 41.866 255.488 42.698 254.708 43.79C253.928 44.83 253.304 46.078 252.836 47.534C252.368 48.99 252.134 50.602 252.134 52.37C252.134 53.514 252.316 54.476 252.68 55.256C253.096 55.984 253.59 56.348 254.162 56.348Z" fill="white"/>
</svg>
