<svg width="378" height="331" viewBox="0 0 378 331" fill="none" xmlns="http://www.w3.org/2000/svg">
<path style="mix-blend-mode:screen" d="M255.977 207.829C291.673 172.133 291.915 114.499 256.515 79.0998C221.115 43.7007 163.481 43.9413 127.786 79.637C92.0899 115.333 91.8495 172.967 127.249 208.366C162.648 243.765 220.282 243.525 255.977 207.829Z" fill="url(#paint0_radial_77_1191)"/>
<path style="mix-blend-mode:screen" d="M245.501 194.599C275.956 164.154 276.171 114.989 245.98 84.7865C215.789 54.5844 166.624 54.7822 136.167 85.228C105.711 115.674 105.496 164.839 135.688 195.04C165.879 225.243 215.044 225.045 245.501 194.599Z" fill="url(#paint1_radial_77_1191)"/>
<path fill-rule="evenodd" clip-rule="evenodd" d="M250.041 140.621C250.041 173.043 223.751 199.333 191.329 199.333C163.764 199.333 140.648 180.341 134.326 154.757C133.214 150.226 132.617 145.505 132.617 140.648C132.617 138.505 132.726 136.362 132.97 134.273C136.144 104.835 161.05 81.9365 191.329 81.9365C223.751 81.9365 250.041 108.227 250.041 140.648V140.621Z" fill="white"/>
<g opacity="0.2">
<path fill-rule="evenodd" clip-rule="evenodd" d="M176.516 180.286C177.248 181.86 177.736 183.243 179.012 184.546C180.368 185.956 181.453 186.228 183.217 186.743C184.248 187.042 184.465 187.394 185.767 187.394C186.635 187.394 187.829 187.177 188.643 187.367C190.515 187.801 191.492 189.429 193.581 189.565C195.562 189.673 196.837 189.022 198.546 188.48C200.147 187.991 202.046 187.286 203.538 186.716C205.166 186.092 206.631 185.658 208.34 185.115C210.158 184.546 211.081 183.325 213.36 183.949C213.495 184.79 213.305 186.146 214.336 186.553C215.042 186.852 216.236 186.092 216.995 185.794C218.976 185.034 220.793 184.6 222.692 183.813C223.615 183.433 224.266 183.46 225.189 182.755C226.084 182.104 227.034 181.588 227.956 180.991C229.665 179.852 231.348 178.604 233.057 177.437C236.34 175.212 238.456 172.147 240.464 168.891C241.522 167.182 242.119 165.31 242.77 163.356C243.584 160.969 243.312 160.29 241.712 158.337C238.836 159.531 237.696 157.767 238.483 154.674C239.188 151.988 239.487 148.407 238.89 145.585C238.781 145.097 238.402 144.744 238.32 144.012C238.239 143.225 238.375 142.655 238.185 141.868C237.859 140.566 237.615 139.698 237.642 138.314C237.642 136.93 237.832 135.384 237.479 134.054C237.262 133.213 236.964 132.834 236.909 131.911C236.855 130.962 237.018 130.148 236.774 129.225C236.096 126.865 233.925 126.186 231.944 125.508C230.615 125.047 229.937 124.586 229.096 125.508C228.173 126.485 228.417 127.814 228.39 129.062C228.39 131.45 229.91 133.539 231.239 135.465C231.836 136.334 232.867 137.147 232.704 138.341C232.623 138.992 231.809 139.074 231.863 139.752C231.917 140.539 232.786 140.783 233.192 141.326C236.584 145.748 230.181 149.655 227.142 152.015C225.406 153.345 222.801 154.05 222.123 156.275C221.418 158.662 223.045 160.643 223.914 162.678C224.809 164.794 225.596 168.538 224.293 170.519C223.724 171.36 222.638 171.875 221.797 172.282C220.549 172.879 220.088 173.639 218.976 174.426C217.185 175.728 214.96 176.162 212.736 176.026C211.325 175.945 210.294 175.375 209.181 174.588C208.313 173.992 207.174 172.906 206.17 172.608C205.437 172.391 204.922 172.554 204.189 172.472C203.185 172.337 202.996 171.93 202.127 171.713C200.608 171.333 199.55 172.391 198.356 172.988C197.352 173.503 196.158 174.236 194.938 173.91C193.771 173.612 192.387 172.852 191.275 172.608C188.562 172.038 184.166 171.848 181.996 173.693C180.91 174.616 180.504 175.918 179.527 176.895C178.605 177.817 176.787 178.088 176.488 180.259L176.516 180.286Z" fill="#625EAB"/>
<path fill-rule="evenodd" clip-rule="evenodd" d="M230.561 118.427C227.956 118.481 225.568 116.528 223.425 115.036C221.689 113.815 219.844 111.915 219.003 110.043C218.758 109.474 218.677 109.012 218.46 108.443C218.406 108.307 217.782 106.625 217.782 106.571C217.782 105.594 218.623 104.4 219.355 103.64C221.472 101.443 224.727 103.016 226.844 104.346C228.851 105.594 230.805 107.005 232.487 108.605C233.301 109.392 234.44 110.098 235.01 111.074C235.77 112.377 235.553 113.95 235.525 115.524C235.498 117.939 238.646 120.706 234.82 121.221C233.328 121.438 228.743 120.163 228.39 118.373H230.533L230.561 118.427Z" fill="#625EAB"/>
<path fill-rule="evenodd" clip-rule="evenodd" d="M183.624 194.503C182.972 195.208 182.213 194.72 181.48 194.503C180.775 194.286 180.151 194.15 179.364 194.15C177.79 194.15 176.407 194.15 174.915 193.797C173.504 193.444 172.174 193.255 170.818 192.902C170.275 192.766 169.76 192.468 169.244 192.359C168.919 192.278 168.539 192.413 168.186 192.359C168.023 192.332 168.023 192.142 167.888 192.115C167.616 192.061 167.345 192.115 167.074 192.034C165.717 191.789 164.469 191.383 163.248 191.03C162.678 190.867 162.163 190.84 161.647 190.514C161.105 190.189 160.345 189.809 159.857 189.456C157.93 188.045 155.841 186.852 154.078 185.088C152.423 183.433 150.741 181.914 149.004 180.367C148.597 180.015 148.272 179.526 147.865 179.201C147.404 178.848 146.969 178.658 146.535 178.224C145.64 177.301 144.935 176.325 144.229 175.294C142.818 173.259 141.028 171.604 139.915 169.379C139.373 168.294 138.911 167.263 138.26 166.232C137.853 165.581 137.474 164.794 137.175 164.089C136.958 163.546 136.524 162.922 136.388 162.406C136.171 161.647 136.171 160.914 135.954 160.155C135.873 159.829 135.656 159.612 135.574 159.286C135.466 158.879 135.683 158.418 135.601 158.011C135.52 157.658 135.303 157.496 135.222 157.143C135.113 156.736 135.33 156.275 135.249 155.868C135.167 155.515 134.95 155.352 134.869 155C134.76 154.538 135.005 153.996 134.896 153.535C134.815 153.209 134.598 153.046 134.516 152.666C134.435 152.287 134.516 151.798 134.516 151.418C134.516 150.496 134.191 149.79 134.164 148.922C134.109 148.135 134.001 147.023 134.164 146.236C134.245 145.884 134.462 145.721 134.543 145.368C134.652 144.907 134.435 144.418 134.598 143.957C135.547 143.713 135.249 145.748 135.249 146.236C135.249 147.159 135.629 147.647 135.601 148.542C135.601 149.655 136.036 149.79 136.687 150.604C136.958 150.957 137.609 151.635 137.745 152.097C137.826 152.395 137.826 152.883 137.908 153.182C137.989 153.562 138.098 153.806 138.098 154.24C138.098 155.108 138.043 155.542 138.722 156.112C139.183 156.492 139.997 156.98 140.566 157.116C141.38 157.306 142.086 157.279 142.9 157.441C143.28 157.523 143.415 157.74 143.768 157.821C144.229 157.93 144.69 157.658 145.125 157.876C145.531 158.093 146.074 158.907 146.183 159.313C146.4 160.073 146.264 160.697 145.911 161.375C145.776 161.62 145.694 161.864 145.559 162.081C145.396 162.352 145.07 162.596 144.907 162.868C144.229 164.089 145.206 166.096 145.477 167.127C145.586 167.534 146.183 168.755 145.857 169.135C145.531 169.515 143.497 169.189 143.117 168.972C142.9 169.433 143.307 170.274 143.442 170.763C143.605 171.333 143.876 172.119 144.202 172.662C144.853 173.72 146.02 174.697 147.105 175.294C147.838 175.674 148.272 175.863 148.407 174.914C148.462 174.48 148.353 174.236 148.57 173.829C148.733 173.53 149.031 173.503 149.14 173.15C149.248 172.771 149.004 172.282 149.113 171.875C149.194 171.577 149.384 171.387 149.438 171.143C149.628 170.302 149.303 169.352 149.438 168.511C149.737 166.802 150.985 166.042 152.477 165.662C153.996 165.282 155.489 164.875 156.899 164.251C158.5 163.546 160.237 163.275 161.892 163.817C163.248 164.251 164.333 165.065 165.581 165.716C166.151 166.015 166.667 166.151 167.236 166.368C167.888 166.612 168.566 166.856 169.217 167.046C170.384 167.371 171.74 167.588 172.825 168.213C173.829 168.809 175.213 169.623 175.945 170.6C176.624 171.55 177.302 173.476 176.787 174.67C176.407 175.565 175.05 176.352 174.426 177.084C173.341 178.36 173.612 179.228 174.426 180.53C174.725 181.018 175.24 181.642 175.376 182.158C175.566 182.863 175.457 183.894 175.403 184.627C175.376 185.305 175.159 185.766 174.779 186.309C174.426 186.824 173.612 187.177 173.341 187.693C173.097 188.181 173.341 188.425 173.531 188.778C173.585 188.886 173.775 188.914 173.829 189.022C173.965 189.266 173.884 189.51 173.992 189.755C174.345 190.569 175.05 190.433 175.783 190.623C176.542 190.813 177.194 190.731 177.926 190.46C178.36 190.297 178.496 190.162 178.984 190.08C179.5 189.999 179.744 190.27 180.151 190.352C181.019 190.541 181.535 189.945 182.403 189.89C183.108 189.863 183.542 190.162 184.085 190.704C184.546 191.165 185.17 191.898 185.089 192.576C185.007 193.282 184.139 193.716 183.651 194.34L183.624 194.503Z" fill="#625EAB"/>
<path fill-rule="evenodd" clip-rule="evenodd" d="M176.868 167.833C177.085 167.697 177.275 167.616 177.492 167.535C178.062 168.186 178.658 168.837 179.364 169.271C180.395 169.922 180.91 169.515 181.154 168.403C181.263 167.833 180.964 167.48 180.856 167.073C180.747 166.612 180.856 166.097 180.34 165.798C179.635 165.391 177.627 165.608 177.926 166.802L176.868 167.86V167.833Z" fill="#625EAB"/>
<path fill-rule="evenodd" clip-rule="evenodd" d="M142.737 121.981C142.574 122.252 142.357 122.361 142.086 122.307C141.923 121.71 141.95 120.679 142.086 120.055C142.14 119.729 142.357 119.566 142.411 119.132C142.465 118.779 142.411 118.481 142.493 118.128C142.601 117.694 142.954 116.989 143.035 116.555C143.171 115.876 143.198 115.497 143.47 114.873C143.714 114.303 143.876 113.543 144.12 112.892C144.365 112.295 144.636 111.861 144.961 111.318C145.613 110.233 146.155 109.202 146.833 108.117C148.027 106.191 149.357 104.291 151.12 102.799C151.717 102.284 152.423 101.904 153.047 101.443C153.264 101.28 153.427 101.036 153.644 100.9C153.861 100.764 154.186 100.71 154.376 100.574C154.919 100.168 156.519 98.5396 157.252 98.9466C156.763 100.276 155.896 101.578 155.244 102.881C154.512 104.373 153.128 104.319 152.043 105.377C150.334 107.032 153.182 107.737 154.159 108.388C155.136 109.012 155.136 109.935 155.136 110.993C155.136 111.97 155.217 112.756 155.489 113.652C155.597 114.032 155.787 114.493 155.868 114.9C155.868 115.144 155.868 115.388 155.841 115.632C155.841 115.822 155.977 115.958 156.139 116.039C156.357 117.043 155.95 117.667 155.597 118.535C155.272 119.376 155.055 120.217 154.349 120.841C153.644 121.493 152.884 121.276 151.962 121.276C151.365 121.276 151.093 121.14 150.55 121.004C150.198 120.923 149.683 120.706 149.411 120.652C148.977 120.57 148.57 120.57 148.136 120.489C147.702 120.407 147.675 120.136 147.078 120.299C146.454 120.462 145.884 121.167 145.233 121.303C144.338 121.493 143.307 121.086 142.439 121.357C142.439 121.465 142.411 121.547 142.737 122.008V121.981Z" fill="#625EAB"/>
</g>
<path style="mix-blend-mode:screen" d="M281.95 235.823C333.96 183.811 334.313 99.8335 282.734 48.2552C231.157 -3.32297 147.18 -2.97083 95.1668 49.0418C43.1543 101.055 42.8021 185.032 94.3803 236.61C145.959 288.187 229.936 287.835 281.95 235.823Z" fill="url(#paint2_radial_77_1191)"/>
<path style="mix-blend-mode:screen" d="M252.239 206.141C287.701 170.679 287.951 113.431 252.796 78.2758C217.64 43.1203 160.393 43.3694 124.93 78.8322C89.4674 114.295 89.2183 171.542 124.374 206.698C159.529 241.853 216.777 241.604 252.239 206.141Z" fill="url(#paint3_radial_77_1191)"/>
<defs>
<radialGradient id="paint0_radial_77_1191" cx="0" cy="0" r="1" gradientUnits="userSpaceOnUse" gradientTransform="translate(201.003 132.161) rotate(-45) scale(91.2347 90.4713)">
<stop stop-color="#5D2798"/>
<stop offset="0.16" stop-color="#5A2593"/>
<stop offset="0.32" stop-color="#522287"/>
<stop offset="0.49" stop-color="#461D72"/>
<stop offset="0.65" stop-color="#341655"/>
<stop offset="0.82" stop-color="#1D0C30"/>
<stop offset="0.99" stop-color="#020003"/>
<stop offset="1"/>
</radialGradient>
<radialGradient id="paint1_radial_77_1191" cx="0" cy="0" r="1" gradientUnits="userSpaceOnUse" gradientTransform="translate(199.127 127.716) rotate(-44.99) scale(77.877 77.2253)">
<stop stop-color="#213A9F"/>
<stop offset="0.16" stop-color="#20389A"/>
<stop offset="0.31" stop-color="#1D348E"/>
<stop offset="0.48" stop-color="#192C7A"/>
<stop offset="0.64" stop-color="#13225D"/>
<stop offset="0.8" stop-color="#0B1438"/>
<stop offset="0.96" stop-color="#02040C"/>
<stop offset="1"/>
</radialGradient>
<radialGradient id="paint2_radial_77_1191" cx="0" cy="0" r="1" gradientUnits="userSpaceOnUse" gradientTransform="translate(197.485 130.69) rotate(-45) scale(132.994 131.881)">
<stop stop-color="#2F54BD"/>
<stop offset="1"/>
</radialGradient>
<radialGradient id="paint3_radial_77_1191" cx="0" cy="0" r="1" gradientUnits="userSpaceOnUse" gradientTransform="translate(197.954 131.07) rotate(-45) scale(90.6511 89.8925)">
<stop stop-color="#2F54BD"/>
<stop offset="0.13" stop-color="#2A4CAB"/>
<stop offset="0.39" stop-color="#1F387E"/>
<stop offset="0.75" stop-color="#0D1837"/>
<stop offset="1"/>
</radialGradient>
</defs>
</svg>
