<svg width="715" height="424" viewBox="0 0 715 424" fill="none" xmlns="http://www.w3.org/2000/svg">
<g clip-path="url(#clip0_77_1203)">
<path d="M278.255 212.934L312.574 175.64L318.586 175.405L355.494 172.517L414.376 89.3076L432.969 99.107L586.421 269.633L342.036 324.022L278.255 212.934Z" fill="url(#paint0_linear_77_1203)"/>
<path d="M306.968 247.937L354.895 213.126L374.173 216.549L395.484 213.896L443.239 184.734L568.406 74.6084L714.006 379.116C714.006 379.116 253.072 386.605 260.154 384.829C267.215 383.074 306.968 247.916 306.968 247.916V247.937Z" fill="url(#paint1_linear_77_1203)"/>
<path d="M632.359 417.479L123.647 411.359L123.754 372.697L2.05396 307.717L124.418 86.9532L191.515 3.31626L192.607 1.94692L193.056 1.39062L207.541 12.7305L243.85 102.658L244.214 102.551L259.598 97.4158L260.732 97.0521L266.337 108.799H272.606L335.083 235.549L365.358 273.355H370.985L482.758 217.662L628.679 381.191L632.359 417.479Z" fill="url(#paint2_linear_77_1203)"/>
<g style="mix-blend-mode:multiply" opacity="0.5">
<path d="M264.626 247.509L261.416 226.327L272.35 234.864L250.462 130.344L256.003 126.065L265.482 135.073L259.576 97.4156L259.512 96.9449L244.214 102.529L243.914 102.636L186.915 186.23L178.871 111.494L183.963 106.915L187.6 99.1701L192.564 111.494L187.6 65.9421L192.564 58.0256L199.411 63.7169L192.585 1.92529L191.494 3.27324L124.375 86.9316L71.6338 180.368L123.861 306.112L123.712 372.697L238.779 316.147L246.075 320.897L233.687 190.274L238.801 188.841L264.626 247.509ZM165.883 217.084L132.655 265.824L135.394 117.999L141.342 115.688L148.082 139.181L167.338 121.871C166.91 146.776 166.119 193.74 165.883 217.084Z" fill="#9B8BD6"/>
</g>
<g style="mix-blend-mode:multiply" opacity="0.3">
<path d="M303.566 399.955V394.585H285.337L262.871 383.822L269.29 374.965L269.44 364.053L280.673 260.325L298.667 328.514L310.114 323.743L328.364 300.806L333.713 294.794L323.55 270.916L339.298 288.546L344.989 282.149L370.964 273.291L388.509 264.433L480.939 217.79L485.753 288.482H478.607L480.361 305.085L470.584 321.838L490.418 373.082L465.042 393.793L595.878 411.038L618.922 421.458L269.29 419.575L303.566 399.955Z" fill="#9B8BD6"/>
</g>
<g style="mix-blend-mode:multiply" opacity="0.3">
<path d="M478.607 288.482L348.07 323.742L336.966 321.838L480.362 273.612L484.555 270.852L485.753 288.482H478.607Z" fill="#9B8BD6"/>
</g>
<g style="mix-blend-mode:multiply" opacity="0.3">
<path d="M468.102 325.476L380.742 372.761L490.418 373.082L468.102 325.476Z" fill="#9B8BD6"/>
</g>
<g style="mix-blend-mode:multiply" opacity="0.3">
<path d="M460.527 396.168L436.607 419.255L292.333 421.779L317.131 402.972L432.52 395.847V392.36L473.365 384.936L460.527 396.168Z" fill="#9B8BD6"/>
</g>
<g style="mix-blend-mode:multiply" opacity="0.3">
<path d="M228.295 134.131L256.025 126.065L264.497 134.131L262.871 120.994L225.193 130.108L187.9 184.861L149.986 244.342L135.394 288.482L111.473 265.866L100.24 343.983L154.201 317.559L238.801 316.147L246.097 320.105L244.492 309.814L154.8 297.169L159.464 273.441L173.457 264.583L177.694 253.371L162.224 258.271L186.744 196.757L233.708 190.745L238.801 188.84L264.069 246.246L261.416 226.327L256.602 224.273L240.855 179.512L206.129 176.666L228.295 134.131Z" fill="#9B8BD6"/>
</g>
<g style="mix-blend-mode:multiply" opacity="0.3">
<path d="M192.564 58.0683L148.509 65.9634L198.041 52.9761L199.432 63.7597L192.564 58.0683Z" fill="#9B8BD6"/>
</g>
<g style="mix-blend-mode:multiply" opacity="0.3">
<path d="M187.6 99.1705L118.897 110.082V102.508L187.6 80.9839L192.414 110.082L187.6 99.1705Z" fill="#9B8BD6"/>
</g>
<g style="mix-blend-mode:multiply" opacity="0.3">
<path d="M166.118 197.335L173.457 115.153L144.722 119.732L167.338 120.994L166.118 197.335Z" fill="#9B8BD6"/>
</g>
<g style="mix-blend-mode:multiply" opacity="0.5">
<path d="M387.888 277.87L325.305 318.993L336.966 321.838L371.541 331.317L348.07 377.34L303.566 393.793L298.581 394.585H285.337L262.871 383.823L269.29 374.965L294.045 343.898L280.373 258.271L285.487 251.788L311.954 321.411L328.364 300.806L333.713 294.794L322.823 269.012L325.882 270.916L310.862 244.663L340.967 286.663L344.989 282.149L370.964 273.291L388.509 264.433L393.28 264.583L387.888 277.87Z" fill="#9B8BD6"/>
</g>
</g>
<defs>
<linearGradient id="paint0_linear_77_1203" x1="338.057" y1="-144.337" x2="500.688" y2="520.843" gradientUnits="userSpaceOnUse">
<stop stop-color="#6B9EE3"/>
<stop offset="1" stop-color="#867EA8"/>
</linearGradient>
<linearGradient id="paint1_linear_77_1203" x1="487.037" y1="438.212" x2="487.037" y2="-369.829" gradientUnits="userSpaceOnUse">
<stop stop-color="#628CCC"/>
<stop offset="1" stop-color="#6253A1"/>
</linearGradient>
<linearGradient id="paint2_linear_77_1203" x1="590.037" y1="13.1584" x2="274.04" y2="362.94" gradientUnits="userSpaceOnUse">
<stop stop-color="#9ABFF1"/>
<stop offset="1" stop-color="#4E4FBD"/>
</linearGradient>
<clipPath id="clip0_77_1203">
<rect width="714.626" height="423.641" fill="white"/>
</clipPath>
</defs>
</svg>
