<svg width="1512" height="982" viewBox="0 0 1512 982" fill="none" xmlns="http://www.w3.org/2000/svg">
<path fill-rule="evenodd" clip-rule="evenodd" d="M871.64 72.5619C871.64 73.9826 870.493 75.1301 869.072 75.1301C867.651 75.1301 866.504 73.9826 866.504 72.5619C866.504 71.1411 867.651 69.9937 869.072 69.9937C870.493 69.9937 871.64 71.1411 871.64 72.5619Z" fill="#68B7E7"/>
<path fill-rule="evenodd" clip-rule="evenodd" d="M822.243 346.32C822.243 347.741 821.096 348.888 819.675 348.888C818.254 348.888 817.107 347.741 817.107 346.32C817.107 344.899 818.254 343.752 819.675 343.752C821.096 343.752 822.243 344.899 822.243 346.32Z" fill="#68B7E7"/>
<path fill-rule="evenodd" clip-rule="evenodd" d="M1186.98 482.274C1186.98 483.695 1185.84 484.842 1184.42 484.842C1183 484.842 1181.85 483.695 1181.85 482.274C1181.85 480.853 1183 479.706 1184.42 479.706C1185.84 479.706 1186.98 480.853 1186.98 482.274Z" fill="#68B7E7"/>
<path fill-rule="evenodd" clip-rule="evenodd" d="M1258.95 794.173C1258.95 795.594 1257.8 796.741 1256.38 796.741C1254.96 796.741 1253.81 795.594 1253.81 794.173C1253.81 792.752 1254.96 791.605 1256.38 791.605C1257.8 791.605 1258.95 792.752 1258.95 794.173Z" fill="#68B7E7"/>
<path fill-rule="evenodd" clip-rule="evenodd" d="M1026.72 378.068C1026.72 379.489 1025.57 380.636 1024.15 380.636C1022.73 380.636 1021.58 379.489 1021.58 378.068C1021.58 376.648 1022.73 375.5 1024.15 375.5C1025.57 375.5 1026.72 376.648 1026.72 378.068Z" fill="#406FBB"/>
<path fill-rule="evenodd" clip-rule="evenodd" d="M906.448 320.037C906.448 321.458 905.3 322.605 903.88 322.605C902.459 322.605 901.311 321.458 901.311 320.037C901.311 318.616 902.459 317.469 903.88 317.469C905.3 317.469 906.448 318.616 906.448 320.037Z" fill="#406FBB"/>
<path fill-rule="evenodd" clip-rule="evenodd" d="M757 203.758C757 205.179 755.852 206.326 754.432 206.326C753.011 206.326 751.863 205.179 751.863 203.758C751.863 202.337 753.011 201.19 754.432 201.19C755.852 201.19 757 202.337 757 203.758Z" fill="#365CBB"/>
<path d="M600.557 16.0046C601.978 16.0046 603.125 14.8547 603.125 13.4364C603.125 12.018 601.978 10.8682 600.557 10.8682C599.136 10.8682 597.989 12.018 597.989 13.4364C597.989 14.8547 599.136 16.0046 600.557 16.0046Z" fill="#365CBB"/>
<path fill-rule="evenodd" clip-rule="evenodd" d="M1065.62 375.555C1065.62 376.976 1064.48 378.123 1063.05 378.123C1061.63 378.123 1060.49 376.976 1060.49 375.555C1060.49 374.134 1061.63 372.987 1063.05 372.987C1064.48 372.987 1065.62 374.134 1065.62 375.555Z" fill="#365CBB"/>
<path fill-rule="evenodd" clip-rule="evenodd" d="M574.492 967.501C574.492 968.922 573.345 970.07 571.924 970.07C570.504 970.07 569.356 968.922 569.356 967.501C569.356 966.081 570.504 964.933 571.924 964.933C573.345 964.933 574.492 966.081 574.492 967.501Z" fill="#90FFFF"/>
<path fill-rule="evenodd" clip-rule="evenodd" d="M1155.95 298.343C1155.95 299.763 1154.8 300.911 1153.38 300.911C1151.96 300.911 1150.81 299.763 1150.81 298.343C1150.81 296.922 1151.96 295.774 1153.38 295.774C1154.8 295.774 1155.95 296.922 1155.95 298.343Z" fill="#406FBB"/>
<path fill-rule="evenodd" clip-rule="evenodd" d="M506.025 176.327C506.025 177.748 504.878 178.895 503.457 178.895C502.036 178.895 500.889 177.748 500.889 176.327C500.889 174.906 502.036 173.759 503.457 173.759C504.878 173.759 506.025 174.906 506.025 176.327Z" fill="#406FBB"/>
<path fill-rule="evenodd" clip-rule="evenodd" d="M640.392 309.493C640.392 310.913 639.244 312.06 637.823 312.06C636.403 312.06 635.255 310.913 635.255 309.493C635.255 308.072 636.403 306.924 637.823 306.924C639.244 306.924 640.392 308.072 640.392 309.493Z" fill="#406FBB"/>
<path fill-rule="evenodd" clip-rule="evenodd" d="M1168.24 644.289C1168.24 645.71 1167.09 646.858 1165.67 646.858C1164.25 646.858 1163.11 645.71 1163.11 644.289C1163.11 642.869 1164.25 641.721 1165.67 641.721C1167.09 641.721 1168.24 642.869 1168.24 644.289Z" fill="#406FBB"/>
<path fill-rule="evenodd" clip-rule="evenodd" d="M358.379 293.425C358.379 294.846 357.232 295.993 355.811 295.993C354.39 295.993 353.243 294.846 353.243 293.425C353.243 292.004 354.39 290.857 355.811 290.857C357.232 290.857 358.379 292.004 358.379 293.425Z" fill="#406FBB"/>
<path fill-rule="evenodd" clip-rule="evenodd" d="M958.304 531.941C958.304 533.361 957.156 534.509 955.736 534.509C954.315 534.509 953.167 533.361 953.167 531.941C953.167 530.52 954.315 529.373 955.736 529.373C957.156 529.373 958.304 530.52 958.304 531.941Z" fill="#406FBB"/>
<path fill-rule="evenodd" clip-rule="evenodd" d="M759.513 110.974C759.513 112.395 758.366 113.543 756.945 113.543C755.524 113.543 754.377 112.395 754.377 110.974C754.377 109.554 755.524 108.406 756.945 108.406C758.366 108.406 759.513 109.554 759.513 110.974Z" fill="#406FBB"/>
<path fill-rule="evenodd" clip-rule="evenodd" d="M1354.46 718.057C1354.46 719.478 1353.32 720.626 1351.9 720.626C1350.48 720.626 1349.33 719.478 1349.33 718.057C1349.33 716.637 1350.48 715.489 1351.9 715.489C1353.32 715.489 1354.46 716.637 1354.46 718.057Z" fill="#406FBB"/>
<path fill-rule="evenodd" clip-rule="evenodd" d="M1207.42 121.193C1207.42 122.614 1206.27 123.761 1204.85 123.761C1203.43 123.761 1202.28 122.614 1202.28 121.193C1202.28 119.772 1203.43 118.625 1204.85 118.625C1206.27 118.625 1207.42 119.772 1207.42 121.193Z" fill="#68B7E7"/>
<path fill-rule="evenodd" clip-rule="evenodd" d="M1332.17 142.338C1332.17 143.759 1331.02 144.906 1329.6 144.906C1328.18 144.906 1327.03 143.759 1327.03 142.338C1327.03 140.918 1328.18 139.77 1329.6 139.77C1331.02 139.77 1332.17 140.918 1332.17 142.338Z" fill="#406FBB"/>
<path fill-rule="evenodd" clip-rule="evenodd" d="M1039.18 801.988C1039.18 803.409 1038.03 804.556 1036.61 804.556C1035.19 804.556 1034.04 803.409 1034.04 801.988C1034.04 800.567 1035.19 799.42 1036.61 799.42C1038.03 799.42 1039.18 800.567 1039.18 801.988Z" fill="#406FBB"/>
<path fill-rule="evenodd" clip-rule="evenodd" d="M562.58 218.457C562.58 219.878 561.433 221.025 560.012 221.025C558.591 221.025 557.444 219.878 557.444 218.457C557.444 217.036 558.591 215.889 560.012 215.889C561.433 215.889 562.58 217.036 562.58 218.457Z" fill="#90FFFF"/>
<path d="M797.599 251.732C799.02 251.732 800.167 250.582 800.167 249.164C800.167 247.745 799.02 246.596 797.599 246.596C796.178 246.596 795.031 247.745 795.031 249.164C795.031 250.582 796.178 251.732 797.599 251.732Z" fill="#90FFFF"/>
<path fill-rule="evenodd" clip-rule="evenodd" d="M345.266 121.084C345.266 122.505 344.118 123.652 342.697 123.652C341.277 123.652 340.129 122.505 340.129 121.084C340.129 119.663 341.277 118.516 342.697 118.516C344.118 118.516 345.266 119.663 345.266 121.084Z" fill="#90FFFF"/>
<path fill-rule="evenodd" clip-rule="evenodd" d="M952.73 618.769C952.73 620.19 951.583 621.337 950.162 621.337C948.741 621.337 947.594 620.19 947.594 618.769C947.594 617.348 948.741 616.201 950.162 616.201C951.583 616.201 952.73 617.348 952.73 618.769Z" fill="#B7FFFF"/>
<path fill-rule="evenodd" clip-rule="evenodd" d="M847.434 21.4144C847.434 22.8351 846.286 23.9826 844.865 23.9826C843.445 23.9826 842.297 22.8351 842.297 21.4144C842.297 19.9937 843.445 18.8462 844.865 18.8462C846.286 18.8462 847.434 19.9937 847.434 21.4144Z" fill="#90FFFF"/>
<path fill-rule="evenodd" clip-rule="evenodd" d="M1329.66 369.488C1329.66 370.908 1328.51 372.056 1327.09 372.056C1325.67 372.056 1324.52 370.908 1324.52 369.488C1324.52 368.067 1325.67 366.919 1327.09 366.919C1328.51 366.919 1329.66 368.067 1329.66 369.488Z" fill="#90FFFF"/>
<path fill-rule="evenodd" clip-rule="evenodd" d="M813.172 627.131C813.172 628.551 812.025 629.699 810.604 629.699C809.183 629.699 808.036 628.551 808.036 627.131C808.036 625.71 809.183 624.562 810.604 624.562C812.025 624.562 813.172 625.71 813.172 627.131Z" fill="#90FFFF"/>
<path fill-rule="evenodd" clip-rule="evenodd" d="M461.928 649.316C461.928 650.737 460.781 651.884 459.36 651.884C457.939 651.884 456.792 650.737 456.792 649.316C456.792 647.896 457.939 646.748 459.36 646.748C460.781 646.748 461.928 647.896 461.928 649.316Z" fill="#90FFFF"/>
<path fill-rule="evenodd" clip-rule="evenodd" d="M1154.53 72.4525C1154.53 73.8732 1153.38 75.0207 1151.96 75.0207C1150.54 75.0207 1149.39 73.8732 1149.39 72.4525C1149.39 71.0318 1150.54 69.8843 1151.96 69.8843C1153.38 69.8843 1154.53 71.0318 1154.53 72.4525Z" fill="#90FFFF"/>
<path fill-rule="evenodd" clip-rule="evenodd" d="M1068.19 218.457C1068.19 219.878 1067.04 221.025 1065.62 221.025C1064.2 221.025 1063.05 219.878 1063.05 218.457C1063.05 217.036 1064.2 215.889 1065.62 215.889C1067.04 215.889 1068.19 217.036 1068.19 218.457Z" fill="#90FFFF"/>
<path fill-rule="evenodd" clip-rule="evenodd" d="M805.195 219.276C805.195 220.696 804.047 221.844 802.626 221.844C801.206 221.844 800.058 220.696 800.058 219.276C800.058 217.855 801.206 216.708 802.626 216.708C804.047 216.708 805.195 217.855 805.195 219.276Z" fill="#90FFFF"/>
<path fill-rule="evenodd" clip-rule="evenodd" d="M887.05 663.196C887.05 664.616 885.902 665.764 884.481 665.764C883.061 665.764 881.913 664.616 881.913 663.196C881.913 661.775 883.061 660.627 884.481 660.627C885.902 660.627 887.05 661.775 887.05 663.196Z" fill="#90FFFF"/>
<path fill-rule="evenodd" clip-rule="evenodd" d="M815.741 443.421C815.741 444.841 814.593 445.989 813.173 445.989C811.752 445.989 810.604 444.841 810.604 443.421C810.604 442 811.752 440.853 813.173 440.853C814.593 440.853 815.741 442 815.741 443.421Z" fill="#68B7E7"/>
<path fill-rule="evenodd" clip-rule="evenodd" d="M655.528 339.218C655.528 340.639 654.38 341.786 652.96 341.786C651.539 341.786 650.391 340.639 650.391 339.218C650.391 337.797 651.539 336.65 652.96 336.65C654.38 336.65 655.528 337.797 655.528 339.218Z" fill="#406FBB"/>
<path fill-rule="evenodd" clip-rule="evenodd" d="M535.204 281.24C535.204 282.661 534.057 283.808 532.636 283.808C531.215 283.808 530.068 282.661 530.068 281.24C530.068 279.819 531.215 278.672 532.636 278.672C534.057 278.672 535.204 279.819 535.204 281.24Z" fill="#406FBB"/>
<path fill-rule="evenodd" clip-rule="evenodd" d="M385.756 164.961C385.756 166.382 384.609 167.529 383.188 167.529C381.767 167.529 380.62 166.382 380.62 164.961C380.62 163.541 381.767 162.393 383.188 162.393C384.609 162.393 385.756 163.541 385.756 164.961Z" fill="#365CBB"/>
<path fill-rule="evenodd" clip-rule="evenodd" d="M274.722 548.608C274.722 550.029 273.574 551.176 272.154 551.176C270.733 551.176 269.585 550.029 269.585 548.608C269.585 547.188 270.733 546.04 272.154 546.04C273.574 546.04 274.722 547.188 274.722 548.608Z" fill="#365CBB"/>
<path fill-rule="evenodd" clip-rule="evenodd" d="M694.379 336.702C694.379 338.123 693.231 339.27 691.811 339.27C690.39 339.27 689.242 338.123 689.242 336.702C689.242 335.281 690.39 334.134 691.811 334.134C693.231 334.134 694.379 335.281 694.379 336.702Z" fill="#365CBB"/>
<path fill-rule="evenodd" clip-rule="evenodd" d="M134.782 137.477C134.782 138.898 133.634 140.045 132.213 140.045C130.793 140.045 129.645 138.898 129.645 137.477C129.645 136.056 130.793 134.909 132.213 134.909C133.634 134.909 134.782 136.056 134.782 137.477Z" fill="#406FBB"/>
<path fill-rule="evenodd" clip-rule="evenodd" d="M269.203 270.642C269.203 272.063 268.055 273.21 266.635 273.21C265.214 273.21 264.066 272.063 264.066 270.642C264.066 269.221 265.214 268.074 266.635 268.074C268.055 268.074 269.203 269.221 269.203 270.642Z" fill="#406FBB"/>
<path fill-rule="evenodd" clip-rule="evenodd" d="M288.492 626.912C288.492 628.333 287.344 629.48 285.924 629.48C284.503 629.48 283.355 628.333 283.355 626.912C283.355 625.491 284.503 624.344 285.924 624.344C287.344 624.344 288.492 625.491 288.492 626.912Z" fill="#406FBB"/>
<path fill-rule="evenodd" clip-rule="evenodd" d="M388.27 72.1214C388.27 73.5421 387.122 74.6896 385.702 74.6896C384.281 74.6896 383.133 73.5421 383.133 72.1214C383.133 70.7007 384.281 69.5532 385.702 69.5532C387.122 69.5532 388.27 70.7007 388.27 72.1214Z" fill="#406FBB"/>
<path fill-rule="evenodd" clip-rule="evenodd" d="M191.337 179.604C191.337 181.025 190.189 182.172 188.769 182.172C187.348 182.172 186.2 181.025 186.2 179.604C186.2 178.183 187.348 177.036 188.769 177.036C190.189 177.036 191.337 178.183 191.337 179.604Z" fill="#90FFFF"/>
<path fill-rule="evenodd" clip-rule="evenodd" d="M581.487 579.919C581.487 581.34 580.339 582.487 578.919 582.487C577.498 582.487 576.35 581.34 576.35 579.919C576.35 578.498 577.498 577.351 578.919 577.351C580.339 577.351 581.487 578.498 581.487 579.919Z" fill="#B7FFFF"/>
<path fill-rule="evenodd" clip-rule="evenodd" d="M441.929 588.281C441.929 589.701 440.781 590.849 439.361 590.849C437.94 590.849 436.792 589.701 436.792 588.281C436.792 586.86 437.94 585.712 439.361 585.712C440.781 585.712 441.929 586.86 441.929 588.281Z" fill="#90FFFF"/>
<path fill-rule="evenodd" clip-rule="evenodd" d="M90.6847 610.463C90.6847 611.884 89.5372 613.031 88.1165 613.031C86.6958 613.031 85.5483 611.884 85.5483 610.463C85.5483 609.043 86.6958 607.895 88.1165 607.895C89.5372 607.895 90.6847 609.043 90.6847 610.463Z" fill="#90FFFF"/>
<path fill-rule="evenodd" clip-rule="evenodd" d="M783.283 33.6527C783.283 35.0734 782.135 36.2209 780.715 36.2209C779.294 36.2209 778.146 35.0734 778.146 33.6527C778.146 32.232 779.294 31.0845 780.715 31.0845C782.135 31.0845 783.283 32.232 783.283 33.6527Z" fill="#90FFFF"/>
<path fill-rule="evenodd" clip-rule="evenodd" d="M696.947 179.604C696.947 181.025 695.8 182.172 694.379 182.172C692.958 182.172 691.811 181.025 691.811 179.604C691.811 178.183 692.958 177.036 694.379 177.036C695.8 177.036 696.947 178.183 696.947 179.604Z" fill="#90FFFF"/>
<path fill-rule="evenodd" clip-rule="evenodd" d="M442.202 198.347C442.202 199.768 441.055 200.915 439.634 200.915C438.213 200.915 437.066 199.768 437.066 198.347C437.066 196.926 438.213 195.779 439.634 195.779C441.055 195.779 442.202 196.926 442.202 198.347Z" fill="#90FFFF"/>
<path fill-rule="evenodd" clip-rule="evenodd" d="M515.861 624.343C515.861 625.763 514.713 626.911 513.293 626.911C511.872 626.911 510.724 625.763 510.724 624.343C510.724 622.922 511.872 621.774 513.293 621.774C514.713 621.774 515.861 622.922 515.861 624.343Z" fill="#90FFFF"/>
<path fill-rule="evenodd" clip-rule="evenodd" d="M1153.98 612.158C1153.98 613.578 1152.83 614.726 1151.41 614.726C1149.99 614.726 1148.84 613.578 1148.84 612.158C1148.84 610.737 1149.99 609.589 1151.41 609.589C1152.83 609.589 1153.98 610.737 1153.98 612.158Z" fill="#90FFFF"/>
<path fill-rule="evenodd" clip-rule="evenodd" d="M1509.6 290.858C1509.6 292.279 1508.45 293.426 1507.03 293.426C1505.61 293.426 1504.46 292.279 1504.46 290.858C1504.46 289.438 1505.61 288.29 1507.03 288.29C1508.45 288.29 1509.6 289.438 1509.6 290.858Z" fill="#406FBB"/>
<path fill-rule="evenodd" clip-rule="evenodd" d="M1299.66 178.513C1299.66 179.933 1298.51 181.081 1297.09 181.081C1295.67 181.081 1294.52 179.933 1294.52 178.513C1294.52 177.092 1295.67 175.944 1297.09 175.944C1298.51 175.944 1299.66 177.092 1299.66 178.513Z" fill="#406FBB"/>
<path fill-rule="evenodd" clip-rule="evenodd" d="M1120.27 362.113C1120.27 363.534 1119.12 364.681 1117.7 364.681C1116.28 364.681 1115.13 363.534 1115.13 362.113C1115.13 360.692 1116.28 359.545 1117.7 359.545C1119.12 359.545 1120.27 360.692 1120.27 362.113Z" fill="#406FBB"/>
<path fill-rule="evenodd" clip-rule="evenodd" d="M1380.53 448.557C1380.53 449.978 1379.38 451.125 1377.96 451.125C1376.54 451.125 1375.39 449.978 1375.39 448.557C1375.39 447.136 1376.54 445.989 1377.96 445.989C1379.38 445.989 1380.53 447.136 1380.53 448.557Z" fill="#406FBB"/>
<path fill-rule="evenodd" clip-rule="evenodd" d="M1495.33 258.726C1495.33 260.147 1494.19 261.295 1492.77 261.295C1491.35 261.295 1490.2 260.147 1490.2 258.726C1490.2 257.306 1491.35 256.158 1492.77 256.158C1494.19 256.158 1495.33 257.306 1495.33 258.726Z" fill="#90FFFF"/>
</svg>
